# xmcd
#
# Track frame offsets:
#	150
#	6419
#	43668
#	81801
#	86123
#	182784
#	221443
#	233928
#	249888
#
# Disc length: 3348 seconds
# Revision: 0
# Processed by: cddbd v1.5.2PL0 Copyright (c) Steve Scherf et al.
# Submitted via: dBpowerAMP V12.0
#
DISCID=700d1209
DTITLE=Hale Dwoskin - The Sedona Method Course CD 07
DYEAR=2007
DGENRE=Speech
TTITLE0=Review
TTITLE1=Introduction to Effortless Wealth and Success
TTITLE2=Guidelines for Writing Your Goals
TTITLE3=Write Down Your Wealth and Success Goal
TTITLE4=Q and A, Sharing and Assistance
TTITLE5=The Goals Process
TTITLE6=Summary of the Goals Process
TTITLE7=Q and A, Sharing and Assistance
TTITLE8=Conclusion
EXTD=
EXTT0=
EXTT1=
EXTT2=
EXTT3=
EXTT4=
EXTT5=
EXTT6=
EXTT7=
EXTT8=
PLAYORDER=
